<mxfile host="app.diagrams.net" modified="2020-12-03T12:09:55.498Z" agent="5.0 (Windows NT 6.1; Win64; x64) AppleWebKit/537.36 (KHTML, like Gecko) Chrome/86.0.4240.198 Safari/537.36" etag="fkf5nHXJaJWjq9P5AXiU" version="13.10.4" type="github">
  <diagram id="Pv8hkeTCUWb0cc1vT2Pk" name="Page-1">
    <mxGraphModel dx="868" dy="482" grid="1" gridSize="10" guides="1" tooltips="1" connect="1" arrows="1" fold="1" page="1" pageScale="1" pageWidth="1169" pageHeight="827" math="0" shadow="0">
      <root>
        <mxCell id="0" />
        <mxCell id="1" parent="0" />
        <mxCell id="0uASlyZWln_WhKkmHyyi-1" value="&lt;b&gt;&lt;font style=&quot;font-size: 18px&quot;&gt;基于用电量及上&lt;br&gt;一年的排放总量&lt;/font&gt;&lt;/b&gt;" style="rounded=1;whiteSpace=wrap;html=1;fillColor=#CCFFFF;" vertex="1" parent="1">
          <mxGeometry x="520" y="280" width="150" height="70" as="geometry" />
        </mxCell>
        <mxCell id="0uASlyZWln_WhKkmHyyi-9" value="&lt;b style=&quot;font-size: 18px&quot;&gt;基于在线监测数据&lt;/b&gt;" style="rounded=1;whiteSpace=wrap;html=1;fillColor=#CCFFFF;" vertex="1" parent="1">
          <mxGeometry x="250" y="280" width="150" height="70" as="geometry" />
        </mxCell>
        <mxCell id="0uASlyZWln_WhKkmHyyi-11" style="edgeStyle=orthogonalEdgeStyle;rounded=0;orthogonalLoop=1;jettySize=auto;html=1;exitX=0.5;exitY=1;exitDx=0;exitDy=0;entryX=0.5;entryY=0;entryDx=0;entryDy=0;" edge="1" parent="1" source="0uASlyZWln_WhKkmHyyi-10" target="0uASlyZWln_WhKkmHyyi-9">
          <mxGeometry relative="1" as="geometry" />
        </mxCell>
        <mxCell id="0uASlyZWln_WhKkmHyyi-12" style="edgeStyle=orthogonalEdgeStyle;rounded=0;orthogonalLoop=1;jettySize=auto;html=1;exitX=0.5;exitY=1;exitDx=0;exitDy=0;" edge="1" parent="1" source="0uASlyZWln_WhKkmHyyi-10" target="0uASlyZWln_WhKkmHyyi-1">
          <mxGeometry relative="1" as="geometry" />
        </mxCell>
        <mxCell id="0uASlyZWln_WhKkmHyyi-10" value="&lt;b&gt;&lt;font style=&quot;font-size: 18px&quot;&gt;固定污染源计算&lt;/font&gt;&lt;/b&gt;" style="rounded=1;whiteSpace=wrap;html=1;fillColor=#FFCC99;" vertex="1" parent="1">
          <mxGeometry x="385" y="158" width="150" height="70" as="geometry" />
        </mxCell>
      </root>
    </mxGraphModel>
  </diagram>
</mxfile>
